<svg width="20" height="20" viewBox="0 0 20 20" fill="none" xmlns="http://www.w3.org/2000/svg">
<g clip-path="url(#clip0_261_279)">
<path d="M19.9999 9.37266C19.8794 7.42268 19.1908 5.55059 18.0192 3.98719C16.8476 2.42378 15.244 1.23741 13.4063 0.574327C11.5686 -0.0887544 9.57696 -0.199558 7.67701 0.255577C5.77706 0.710712 4.05182 1.71189 2.714 3.13568C1.37617 4.55947 0.48424 6.34363 0.148157 8.26821C-0.187925 10.1928 0.0465362 12.1737 0.822636 13.9666C1.59874 15.7595 2.88255 17.2862 4.5158 18.3583C6.14905 19.4304 8.06034 20.0012 10.014 20.0002H15.8332C16.9379 19.9991 17.9971 19.5597 18.7783 18.7786C19.5594 17.9974 19.9988 16.9382 19.9999 15.8335V9.37266ZM18.3332 15.8335C18.3332 16.4965 18.0698 17.1324 17.601 17.6013C17.1321 18.0701 16.4962 18.3335 15.8332 18.3335H10.014C8.83815 18.333 7.67558 18.0846 6.60212 17.6046C5.52866 17.1246 4.56843 16.4237 3.78404 15.5477C2.99585 14.6721 2.40398 13.6381 2.04812 12.515C1.69225 11.3919 1.58062 10.2057 1.72071 9.036C1.9419 7.19095 2.77086 5.47199 4.07691 4.1501C5.38295 2.82821 7.09179 1.97859 8.93404 1.73516C9.2934 1.69012 9.6552 1.6673 10.0174 1.66683C11.9594 1.66153 13.8414 2.34008 15.3332 3.5835C16.2045 4.30762 16.9196 5.20112 17.4353 6.20986C17.951 7.21859 18.2565 8.32153 18.3332 9.45183V15.8335Z" fill="#588B6A"/>
<path d="M6.66652 7.49985H9.99986C10.2209 7.49985 10.4328 7.41206 10.5891 7.25578C10.7454 7.0995 10.8332 6.88754 10.8332 6.66652C10.8332 6.44551 10.7454 6.23355 10.5891 6.07727C10.4328 5.92099 10.2209 5.83319 9.99986 5.83319H6.66652C6.44551 5.83319 6.23355 5.92099 6.07727 6.07727C5.92099 6.23355 5.83319 6.44551 5.83319 6.66652C5.83319 6.88754 5.92099 7.0995 6.07727 7.25578C6.23355 7.41206 6.44551 7.49985 6.66652 7.49985Z" fill="#588B6A"/>
<path d="M13.3332 9.16681H6.66652C6.44551 9.16681 6.23355 9.25461 6.07727 9.41089C5.92099 9.56717 5.83319 9.77913 5.83319 10.0001C5.83319 10.2212 5.92099 10.4331 6.07727 10.5894C6.23355 10.7457 6.44551 10.8335 6.66652 10.8335H13.3332C13.5542 10.8335 13.7662 10.7457 13.9224 10.5894C14.0787 10.4331 14.1665 10.2212 14.1665 10.0001C14.1665 9.77913 14.0787 9.56717 13.9224 9.41089C13.7662 9.25461 13.5542 9.16681 13.3332 9.16681Z" fill="#588B6A"/>
<path d="M13.3332 12.5H6.66652C6.44551 12.5 6.23355 12.5878 6.07727 12.7441C5.92099 12.9004 5.83319 13.1123 5.83319 13.3333C5.83319 13.5544 5.92099 13.7663 6.07727 13.9226C6.23355 14.0789 6.44551 14.1667 6.66652 14.1667H13.3332C13.5542 14.1667 13.7662 14.0789 13.9224 13.9226C14.0787 13.7663 14.1665 13.5544 14.1665 13.3333C14.1665 13.1123 14.0787 12.9004 13.9224 12.7441C13.7662 12.5878 13.5542 12.5 13.3332 12.5Z" fill="#588B6A"/>
</g>
<defs>
<clipPath id="clip0_261_279">
<rect width="20" height="20" fill="white"/>
</clipPath>
</defs>
</svg>
