<svg width="304" height="318" viewBox="0 0 304 318" fill="none" xmlns="http://www.w3.org/2000/svg">
<g clip-path="url(#clip0_120_142)">
<rect width="304" height="318" rx="30" fill="#E5E7FF"/>
<path d="M77.5346 215.93C77.5346 215.93 53.1322 181.182 43.5974 185.684C34.0625 190.187 77.5346 215.93 77.5346 215.93Z" fill="#A8D29F"/>
<path d="M75.9813 206.588C75.9813 206.588 72.2537 180.466 66.378 181.49C60.5024 182.514 75.9813 206.588 75.9813 206.588Z" fill="#A8D29F"/>
<path d="M55.3513 288.013C55.3513 288.013 57.6968 276.385 48.5887 274.928C48.5887 274.928 42.4105 274.713 38.7736 277.043C38.7736 277.043 49.1046 283.008 47.8753 284.864C46.6461 286.72 36.8437 277.378 36.8437 277.378C36.8437 277.378 25.7691 282.229 23.2962 285.743C23.2962 285.743 36.3835 288.075 34.7371 289.566C33.0906 291.057 19.3584 289.267 19.3584 289.267C19.3584 289.267 10.5115 296.394 14.3649 302.07C18.2183 307.745 22.6163 307.705 24.008 306.719C25.3997 305.733 32.2149 297.584 33.0843 298.691C33.9537 299.798 30.9521 306.681 27.4044 308.906C27.4044 308.906 38.5507 312.659 41.8946 307.904C45.2385 303.149 43.6987 299.451 45.826 296.55C47.9534 293.65 50.3928 292.29 49.9565 294.279C49.5202 296.269 45.0745 300.451 45.0553 304.253C45.0362 308.055 44.6589 310.824 49.0011 307.461C53.3434 304.099 59.1092 296.324 57.2287 292.17L55.3513 288.013Z" fill="#82B378"/>
<path d="M19.2656 299.553C19.2656 299.553 45.2508 283.687 55.3588 288.007C55.3588 288.007 58.8269 291.168 64.7934 292.476L66.3634 293.824C66.3634 293.824 59.0498 291.543 57.2394 292.169C57.2314 292.175 54.5499 281.323 19.2656 299.553Z" fill="#82B378"/>
<path d="M64.7853 292.482C64.7853 292.482 72.8409 293.513 77.4459 300.827L76.4634 301.497C76.4634 301.497 70.2916 294.723 65.298 293.516C60.3045 292.308 64.7853 292.482 64.7853 292.482Z" fill="#82B378"/>
<path d="M63.305 254.094C63.305 254.094 82.1757 243.524 73.3685 229.179C73.3685 229.179 66.3241 220.371 58.7764 218.106C58.7764 218.106 62.8018 239.497 58.7764 240.001C54.7511 240.504 56.009 215.841 56.009 215.841C56.009 215.841 36.1336 206.284 28.3344 207.033C28.3344 207.033 40.6622 227.921 36.6368 227.421C32.6114 226.921 18.7741 205.774 18.7741 205.774C18.7741 205.774 -1.60766 202 -4.87511 214.079C-8.14256 226.159 -2.86719 232.199 0.158221 232.954C3.18364 233.709 22.5495 233.458 22.0463 235.981C21.5431 238.504 8.4606 242.524 1.16457 240.259C1.16457 240.259 9.21536 260.14 19.782 259.134C30.3487 258.127 33.6193 251.584 40.1638 251.08C46.7082 250.577 51.4852 252.339 48.2146 254.107C44.9439 255.875 33.8741 254.685 28.5908 259.177C23.3074 263.668 19.0368 266.438 28.8423 268.452C38.6479 270.465 56.2653 269.207 59.7876 261.657L63.305 254.094Z" fill="#A8D29F"/>
<path d="M4.43372 217.854C4.43372 217.854 57.267 234.967 63.3051 254.094C63.3051 254.094 63.0535 262.65 68.3369 272.465V276.24C68.3369 276.24 62.8019 263.405 59.7829 261.644C59.7829 261.644 71.6075 245.034 4.43372 217.854Z" fill="#82B378"/>
<path d="M68.3369 272.465C68.3369 272.465 76.4849 284.843 71.8401 299.908L69.743 299.346C69.743 299.346 71.778 282.75 67.5137 274.405C63.2495 266.061 68.3369 272.465 68.3369 272.465Z" fill="#82B378"/>
<path d="M82.4813 165.659L54.251 311.658C54.1152 312.355 54.1353 313.074 54.3099 313.762C54.4845 314.451 54.8092 315.092 55.2608 315.64C55.7124 316.188 56.2796 316.629 56.9219 316.932C57.5641 317.235 58.2654 317.392 58.9754 317.392H73.8653L82.4813 165.659Z" fill="#50957D"/>
<path d="M270.148 207.453C270.148 207.453 257.449 199.351 264.145 189.727C264.145 189.727 269.399 183.883 274.734 182.609C274.734 182.609 271.081 197.323 273.86 197.834C276.638 198.346 276.745 181.145 276.745 181.145C276.745 181.145 290.947 175.288 296.34 176.124C296.34 176.124 286.934 190.157 289.754 189.969C292.574 189.781 303.039 175.634 303.039 175.634C303.039 175.634 317.36 173.823 319.152 182.352C320.943 190.882 317.029 194.872 314.9 195.276C312.771 195.681 299.31 194.733 299.56 196.503C299.81 198.272 308.744 201.6 313.908 200.311C313.908 200.311 307.517 213.815 300.214 212.694C292.912 211.572 290.894 206.891 286.361 206.279C281.828 205.668 278.438 206.701 280.641 208.059C282.845 209.416 290.59 209.032 294.085 212.359C297.58 215.686 300.443 217.791 293.541 218.799C286.638 219.807 274.433 218.229 272.293 212.837L270.148 207.453Z" fill="#81BEA9"/>
<path d="M312.531 184.604C312.531 184.604 275.111 194.394 270.148 207.453C270.148 207.453 269.988 213.414 265.915 220.027L265.766 222.652C265.766 222.652 270.125 213.949 272.294 212.843C272.296 212.843 264.737 200.822 312.531 184.604Z" fill="#81BEA9"/>
<path d="M265.917 220.027C265.917 220.027 259.758 228.31 262.387 238.97L263.867 238.661C263.867 238.661 263.115 227.034 266.414 221.408C269.714 215.782 265.917 220.027 265.917 220.027Z" fill="#81BEA9"/>
<path d="M235.957 172.287C235.957 172.287 216.446 168.001 220.387 152.96C220.387 152.96 224.255 143.285 230.32 139.262C230.32 139.262 232.492 159.25 236.184 158.616C239.877 157.982 232.161 136.509 232.161 136.509C232.161 136.509 247.168 122.728 254.265 121.304C254.265 121.304 248.963 143.075 252.386 141.551C255.81 140.026 262.38 117.63 262.38 117.63C262.38 117.63 279.383 108.831 285.51 118.632C291.637 128.432 288.585 135.197 286.118 136.665C283.652 138.134 266.459 143.113 267.579 145.203C268.698 147.293 281.341 147.345 287.183 143.387C287.183 143.387 285.392 163.12 275.782 165.062C266.173 167.004 261.528 162.098 255.611 163.406C249.694 164.713 245.939 167.547 249.302 168.233C252.665 168.92 262.135 164.9 268.009 167.456C273.883 170.013 278.405 171.312 270.27 175.721C262.135 180.13 246.226 183.739 241.095 178.01L235.957 172.287Z" fill="#60A68E"/>
<path d="M278.291 124.465C278.291 124.465 236.172 153.755 235.957 172.287C235.957 172.287 238.471 179.783 236.435 189.875L237.446 193.22C237.446 193.22 238.9 180.392 241.097 178.025C241.094 178.01 226.191 166.498 278.291 124.465Z" fill="#C0C5FC"/>
<path d="M236.431 189.869C236.431 189.869 232.544 202.993 240.686 215.067L242.388 214.006C242.388 214.006 236.143 199.883 237.676 191.363C239.21 182.843 236.431 189.869 236.431 189.869Z" fill="#81BEA9"/>
<path d="M82.8227 165.069L64.1097 308.422C63.9636 309.542 64.0581 310.68 64.3869 311.761C64.7156 312.841 65.2712 313.839 66.0163 314.688C66.7614 315.537 67.679 316.217 68.7078 316.683C69.7366 317.149 70.8529 317.389 71.9821 317.389H99.4322L83.9548 164.554L82.8227 165.069Z" fill="#60A68E"/>
<path d="M82.823 165.069L74.4474 307.504C74.3736 308.774 74.5599 310.044 74.9947 311.239C75.4294 312.434 76.1036 313.527 76.9759 314.452C77.8481 315.376 78.9 316.113 80.067 316.616C81.234 317.12 82.4915 317.38 83.7625 317.38H124.703L82.823 165.069Z" fill="#60A68E"/>
<path d="M82.5078 166.234L86.581 307.507C86.5072 308.776 86.6935 310.047 87.1283 311.242C87.5631 312.436 88.2373 313.53 89.1095 314.454C89.9817 315.379 91.0336 316.116 92.2006 316.619C93.3676 317.123 94.6251 317.382 95.8961 317.382H136.836L82.5078 166.234Z" fill="#81BEA9"/>
<path d="M278.528 317.392H117.098C115.145 317.392 113.254 316.706 111.753 315.455C110.253 314.204 109.239 312.465 108.888 310.543L84.3237 176.166C84.0621 174.734 84.1183 173.262 84.4885 171.854C84.8586 170.446 85.5335 169.136 86.4655 168.018C87.3975 166.9 88.5637 166.001 89.8817 165.383C91.1997 164.766 92.6372 164.446 94.0926 164.446H253.623C255.576 164.446 257.468 165.132 258.968 166.383C260.468 167.635 261.482 169.373 261.833 171.295L286.738 307.538C286.959 308.741 286.912 309.979 286.602 311.163C286.291 312.347 285.724 313.448 284.94 314.388C284.157 315.328 283.177 316.085 282.069 316.604C280.96 317.123 279.752 317.392 278.528 317.392Z" fill="#F6F0FF"/>
<path d="M87.5188 193.618H266.018L261.442 168.248C261.25 167.181 260.69 166.216 259.858 165.521C259.027 164.826 257.978 164.445 256.894 164.446H83.9965C83.7744 164.446 83.555 164.494 83.3539 164.589C83.1527 164.683 82.9747 164.82 82.8326 164.991C82.6905 165.162 82.5877 165.361 82.5316 165.576C82.4754 165.791 82.4673 166.016 82.5077 166.235L87.5188 193.618Z" fill="#60A68E"/>
<path d="M91.6938 156.812C89.6421 156.813 87.675 157.629 86.2241 159.08C84.7732 160.531 83.9572 162.499 83.9551 164.551H85.4423C85.4431 163.33 85.8013 162.136 86.4727 161.116C87.1442 160.097 88.0994 159.296 89.2206 158.813C90.3418 158.33 91.5798 158.186 92.7818 158.399C93.9837 158.612 95.0971 159.172 95.9844 160.011C96.8717 160.849 97.494 161.93 97.7747 163.118C98.0553 164.306 97.9819 165.551 97.5635 166.698C97.1451 167.845 96.4001 168.844 95.4203 169.573C94.4406 170.301 93.2691 170.727 92.0505 170.797V172.288C92.7223 172.257 93.3872 172.139 94.0281 171.936C95.7911 171.379 97.2968 170.21 98.2725 168.639C99.2483 167.069 99.6296 165.201 99.3474 163.373C99.0653 161.546 98.1384 159.88 96.7344 158.677C95.3305 157.474 93.5424 156.813 91.6938 156.815V156.812Z" fill="#868CD1"/>
<path d="M94.0862 171.491C94.0863 171.642 94.0665 171.792 94.0273 171.938C93.9272 172.303 93.7068 172.623 93.4019 172.847C93.097 173.071 92.7254 173.185 92.3475 173.172C91.9695 173.158 91.6073 173.017 91.3196 172.771C91.0318 172.525 90.8355 172.19 90.7623 171.819C90.6891 171.447 90.7434 171.062 90.9164 170.726C91.0894 170.39 91.371 170.121 91.7154 169.965C92.0598 169.809 92.4469 169.773 92.814 169.865C93.181 169.956 93.5064 170.169 93.7375 170.468C93.9645 170.761 94.0873 171.12 94.0862 171.491Z" fill="#868CD1"/>
<path d="M119.441 156.812C117.39 156.813 115.422 157.629 113.971 159.08C112.52 160.531 111.704 162.499 111.701 164.551H113.187C113.187 162.892 113.846 161.301 115.018 160.128C116.191 158.955 117.781 158.296 119.44 158.296C121.098 158.296 122.689 158.955 123.861 160.128C125.034 161.301 125.693 162.892 125.693 164.551C125.696 165.224 125.588 165.893 125.374 166.531C124.978 167.718 124.236 168.759 123.242 169.519C122.249 170.28 121.05 170.725 119.801 170.797V172.288C120.473 172.258 121.138 172.139 121.779 171.936C123.542 171.379 125.047 170.21 126.023 168.64C126.999 167.07 127.38 165.202 127.099 163.375C126.817 161.547 125.89 159.881 124.487 158.678C123.084 157.475 121.296 156.814 119.448 156.815L119.441 156.812Z" fill="#868CD1"/>
<path d="M121.832 171.491C121.832 171.642 121.812 171.793 121.772 171.939C121.659 172.349 121.394 172.702 121.03 172.924C120.667 173.147 120.233 173.223 119.816 173.138C119.398 173.053 119.029 172.812 118.783 172.464C118.536 172.117 118.431 171.689 118.488 171.266C118.545 170.844 118.76 170.459 119.09 170.19C119.42 169.92 119.84 169.786 120.265 169.815C120.69 169.844 121.088 170.032 121.379 170.344C121.67 170.655 121.832 171.065 121.832 171.491Z" fill="#868CD1"/>
<path d="M147.188 156.812C145.136 156.813 143.169 157.629 141.718 159.08C140.267 160.531 139.451 162.499 139.449 164.551H140.935C140.935 163.329 141.293 162.134 141.964 161.113C142.636 160.093 143.592 159.291 144.714 158.807C145.835 158.324 147.074 158.18 148.277 158.392C149.48 158.605 150.594 159.166 151.482 160.005C152.37 160.844 152.993 161.925 153.274 163.115C153.554 164.304 153.481 165.549 153.062 166.697C152.643 167.845 151.897 168.845 150.916 169.574C149.935 170.302 148.763 170.727 147.543 170.797V172.288C148.215 172.257 148.88 172.139 149.521 171.936C151.284 171.379 152.789 170.21 153.765 168.64C154.741 167.069 155.122 165.201 154.84 163.374C154.558 161.547 153.632 159.881 152.228 158.677C150.824 157.474 149.036 156.814 147.188 156.815V156.812Z" fill="#868CD1"/>
<path d="M149.58 171.491C149.58 171.642 149.56 171.793 149.52 171.939C149.407 172.349 149.141 172.702 148.778 172.924C148.415 173.147 147.981 173.223 147.564 173.138C147.146 173.053 146.777 172.812 146.531 172.464C146.284 172.117 146.179 171.689 146.236 171.266C146.293 170.844 146.508 170.459 146.838 170.19C147.168 169.92 147.588 169.786 148.013 169.815C148.438 169.844 148.836 170.032 149.127 170.344C149.418 170.655 149.58 171.065 149.58 171.491Z" fill="#868CD1"/>
<path d="M174.934 156.812C172.882 156.813 170.914 157.629 169.463 159.08C168.012 160.531 167.195 162.499 167.193 164.551H168.677C168.678 163.33 169.036 162.136 169.708 161.117C170.379 160.097 171.334 159.296 172.455 158.813C173.576 158.33 174.814 158.186 176.016 158.399C177.218 158.612 178.332 159.172 179.219 160.01C180.106 160.849 180.729 161.929 181.01 163.117C181.29 164.305 181.217 165.55 180.799 166.697C180.381 167.844 179.636 168.844 178.657 169.572C177.677 170.301 176.506 170.726 175.287 170.797V172.288C175.959 172.257 176.624 172.139 177.265 171.936C179.026 171.377 180.529 170.208 181.503 168.638C182.477 167.067 182.857 165.201 182.575 163.375C182.293 161.548 181.368 159.883 179.966 158.68C178.564 157.477 176.778 156.816 174.93 156.815L174.934 156.812Z" fill="#868CD1"/>
<path d="M177.326 171.491C177.326 171.642 177.306 171.792 177.267 171.938C177.167 172.303 176.947 172.623 176.642 172.847C176.337 173.071 175.966 173.185 175.588 173.171C175.21 173.158 174.847 173.016 174.56 172.771C174.272 172.525 174.076 172.19 174.002 171.819C173.929 171.447 173.984 171.062 174.157 170.726C174.33 170.389 174.611 170.121 174.955 169.965C175.3 169.809 175.687 169.773 176.054 169.865C176.421 169.956 176.747 170.169 176.978 170.468C177.205 170.76 177.327 171.12 177.326 171.491Z" fill="#868CD1"/>
<path d="M202.682 156.812C200.63 156.813 198.663 157.629 197.211 159.08C195.76 160.531 194.944 162.499 194.941 164.551H196.427C196.427 163.33 196.786 162.135 197.457 161.115C198.128 160.095 199.084 159.293 200.206 158.81C201.327 158.327 202.565 158.183 203.768 158.396C204.97 158.609 206.084 159.169 206.972 160.008C207.859 160.847 208.482 161.927 208.763 163.116C209.043 164.305 208.97 165.55 208.551 166.698C208.132 167.845 207.387 168.845 206.407 169.573C205.426 170.302 204.254 170.727 203.035 170.797V172.288C203.707 172.258 204.372 172.139 205.013 171.936C206.776 171.379 208.281 170.21 209.257 168.64C210.233 167.07 210.614 165.202 210.332 163.375C210.051 161.547 209.124 159.881 207.721 158.678C206.318 157.475 204.53 156.814 202.682 156.815V156.812Z" fill="#868CD1"/>
<path d="M205.072 171.491C205.072 171.642 205.051 171.792 205.012 171.938C204.911 172.303 204.691 172.622 204.386 172.845C204.081 173.069 203.71 173.182 203.332 173.168C202.954 173.154 202.593 173.012 202.306 172.767C202.019 172.521 201.823 172.186 201.75 171.815C201.677 171.444 201.732 171.059 201.905 170.723C202.078 170.387 202.36 170.12 202.704 169.964C203.048 169.808 203.435 169.773 203.801 169.865C204.168 169.956 204.493 170.169 204.724 170.468C204.951 170.76 205.073 171.12 205.072 171.491Z" fill="#868CD1"/>
<path d="M230.428 156.812C228.377 156.813 226.409 157.629 224.958 159.08C223.508 160.531 222.692 162.499 222.689 164.551H224.173C224.174 163.33 224.532 162.136 225.204 161.117C225.875 160.097 226.83 159.296 227.951 158.813C229.073 158.33 230.31 158.186 231.512 158.399C232.714 158.612 233.828 159.172 234.715 160.01C235.602 160.849 236.225 161.929 236.506 163.117C236.786 164.305 236.713 165.55 236.295 166.697C235.877 167.844 235.132 168.844 234.153 169.572C233.173 170.301 232.002 170.726 230.783 170.797V172.288C231.455 172.257 232.12 172.139 232.761 171.936C234.522 171.377 236.025 170.208 236.999 168.638C237.973 167.068 238.353 165.201 238.072 163.375C237.79 161.549 236.865 159.884 235.463 158.681C234.061 157.478 232.275 156.816 230.428 156.815V156.812Z" fill="#868CD1"/>
<path d="M232.819 171.491C232.819 171.642 232.799 171.792 232.76 171.938C232.66 172.303 232.439 172.623 232.134 172.847C231.829 173.071 231.458 173.185 231.08 173.171C230.702 173.158 230.34 173.016 230.052 172.771C229.764 172.525 229.568 172.19 229.495 171.819C229.421 171.447 229.476 171.062 229.649 170.726C229.822 170.389 230.103 170.121 230.448 169.965C230.792 169.809 231.179 169.773 231.546 169.865C231.913 169.956 232.239 170.169 232.47 170.468C232.697 170.76 232.82 171.12 232.819 171.491Z" fill="#868CD1"/>
<path d="M258.174 156.812C256.123 156.813 254.155 157.629 252.705 159.08C251.254 160.531 250.438 162.499 250.436 164.551H251.921C251.921 162.892 252.58 161.301 253.753 160.128C254.925 158.955 256.516 158.296 258.174 158.296C259.833 158.296 261.423 158.955 262.596 160.128C263.768 161.301 264.427 162.892 264.427 164.551C264.43 165.224 264.322 165.893 264.109 166.531C263.712 167.718 262.97 168.758 261.976 169.519C260.983 170.279 259.784 170.724 258.536 170.797V172.288C259.208 172.258 259.872 172.139 260.513 171.936C262.276 171.379 263.782 170.21 264.758 168.64C265.733 167.069 266.115 165.201 265.833 163.374C265.551 161.547 264.624 159.881 263.221 158.677C261.817 157.474 260.029 156.814 258.181 156.815L258.174 156.812Z" fill="#868CD1"/>
<path d="M260.566 171.491C260.566 171.642 260.546 171.792 260.506 171.938C260.405 172.303 260.185 172.622 259.88 172.845C259.575 173.069 259.204 173.182 258.826 173.168C258.449 173.154 258.087 173.012 257.8 172.767C257.513 172.521 257.317 172.186 257.244 171.815C257.172 171.444 257.226 171.059 257.399 170.723C257.572 170.387 257.854 170.12 258.198 169.964C258.542 169.808 258.929 169.773 259.296 169.865C259.662 169.956 259.987 170.169 260.218 170.468C260.445 170.76 260.567 171.12 260.566 171.491Z" fill="#868CD1"/>
<path d="M190.75 241.278H181.726C180.683 241.278 179.656 240.424 179.463 239.381L177.723 230.355C177.52 229.311 178.21 228.458 179.253 228.458H188.277C189.32 228.458 190.339 229.311 190.539 230.355L192.28 239.381C192.482 240.424 191.793 241.278 190.75 241.278Z" fill="#C0C5FC"/>
<path d="M213.519 241.278H204.495C203.452 241.278 202.425 240.424 202.232 239.381L200.492 230.355C200.291 229.311 200.979 228.458 202.022 228.458H211.046C212.089 228.458 213.108 229.311 213.308 230.355L215.049 239.381C215.251 240.424 214.562 241.278 213.519 241.278Z" fill="#C0C5FC"/>
<path d="M236.288 241.278H227.264C226.221 241.278 225.204 240.424 225.002 239.381L223.261 230.355C223.061 229.311 223.749 228.458 224.792 228.458H233.815C234.86 228.458 235.877 229.311 236.078 230.355L237.82 239.381C238.021 240.424 237.331 241.278 236.288 241.278Z" fill="#868CD1"/>
<path d="M122.437 241.278H113.413C112.37 241.278 111.352 240.424 111.15 239.381L109.41 230.355C109.209 229.311 109.897 228.458 110.942 228.458H119.965C121.008 228.458 122.026 229.311 122.228 230.355L123.968 239.381C124.169 240.424 123.48 241.278 122.437 241.278Z" fill="#C0C5FC"/>
<path d="M112.547 214.178H108.67C108.44 214.169 108.22 214.084 108.044 213.936C107.868 213.789 107.746 213.587 107.697 213.363L106.95 209.484C106.925 209.386 106.923 209.283 106.945 209.183C106.966 209.084 107.011 208.991 107.075 208.912C107.139 208.833 107.22 208.77 107.312 208.727C107.405 208.685 107.506 208.665 107.607 208.669H111.485C111.714 208.678 111.934 208.763 112.11 208.911C112.286 209.058 112.408 209.26 112.458 209.484L113.205 213.363C113.23 213.461 113.231 213.564 113.21 213.664C113.188 213.763 113.143 213.856 113.08 213.935C113.016 214.014 112.934 214.077 112.842 214.119C112.749 214.162 112.648 214.182 112.547 214.178Z" fill="#60A68E"/>
<path d="M145.206 241.278H136.182C135.14 241.278 134.122 240.424 133.921 239.381L132.179 230.355C131.979 229.311 132.668 228.458 133.711 228.458H142.735C143.778 228.458 144.795 229.311 144.998 230.355L146.738 239.381C146.939 240.424 146.251 241.278 145.206 241.278Z" fill="#C0C5FC"/>
<path d="M167.978 241.278H158.954C157.911 241.278 156.884 240.424 156.692 239.381L154.951 230.355C154.749 229.311 155.439 228.458 156.482 228.458H165.505C166.548 228.458 167.566 229.311 167.768 230.355L169.508 239.381C169.709 240.424 169.021 241.278 167.978 241.278Z" fill="#C0C5FC"/>
<path d="M259.06 241.278H250.036C248.993 241.278 247.975 240.424 247.773 239.381L246.033 230.355C245.832 229.311 246.522 228.458 247.565 228.458H256.588C257.631 228.458 258.649 229.311 258.851 230.355L260.591 239.381C260.792 240.424 260.103 241.278 259.06 241.278Z" fill="#868CD1"/>
<path d="M186.968 221.674H177.944C176.9 221.674 175.874 220.82 175.682 219.777L173.941 210.751C173.739 209.706 174.428 208.852 175.471 208.852H184.495C185.538 208.852 186.556 209.706 186.758 210.751L188.498 219.777C188.699 220.82 188.011 221.674 186.968 221.674Z" fill="#C0C5FC"/>
<path d="M209.738 221.674H200.714C199.671 221.674 198.644 220.82 198.451 219.777L196.711 210.751C196.509 209.706 197.198 208.852 198.241 208.852H207.265C208.308 208.852 209.327 209.706 209.528 210.751L211.268 219.777C211.469 220.82 210.781 221.674 209.738 221.674Z" fill="#C0C5FC"/>
<path d="M232.509 221.674H223.486C222.443 221.674 221.416 220.82 221.223 219.777L219.482 210.751C219.28 209.706 219.97 208.852 221.013 208.852H230.036C231.079 208.852 232.098 209.706 232.299 210.751L234.04 219.777C234.242 220.82 233.552 221.674 232.509 221.674Z" fill="#868CD1"/>
<path d="M255.278 221.674H246.255C245.212 221.674 244.194 220.82 243.992 219.777L242.252 210.751C242.051 209.706 242.739 208.852 243.782 208.852H252.806C253.848 208.852 254.868 209.706 255.068 210.751L256.809 219.777C257.011 220.82 256.321 221.674 255.278 221.674Z" fill="#868CD1"/>
<path d="M194.755 262.056H185.731C184.688 262.056 183.671 261.203 183.469 260.159L181.728 251.131C181.528 250.088 182.215 249.234 183.26 249.234H192.284C193.327 249.234 194.344 250.088 194.545 251.131L196.287 260.158C196.492 261.203 195.798 262.056 194.755 262.056Z" fill="#C0C5FC"/>
<path d="M217.524 262.056H208.501C207.458 262.056 206.44 261.203 206.238 260.159L204.498 251.131C204.297 250.088 204.986 249.234 206.029 249.234H215.053C216.096 249.234 217.114 250.088 217.316 251.131L219.056 260.158C219.262 261.203 218.569 262.056 217.524 262.056Z" fill="#C0C5FC"/>
<path d="M240.297 262.057H231.273C230.23 262.057 229.203 261.203 229.01 260.16L227.27 251.131C227.067 250.088 227.757 249.234 228.8 249.234H237.824C238.867 249.234 239.884 250.088 240.086 251.131L241.827 260.158C242.032 261.203 241.339 262.057 240.297 262.057Z" fill="#868CD1"/>
<path d="M126.443 262.056H117.419C116.376 262.056 115.349 261.203 115.156 260.159L113.416 251.131C113.214 250.088 113.903 249.234 114.946 249.234H123.97C125.013 249.234 126.04 250.088 126.233 251.131L127.973 260.158C128.18 261.203 127.486 262.056 126.443 262.056Z" fill="#C0C5FC"/>
<path d="M149.214 262.056H140.191C139.148 262.056 138.121 261.203 137.928 260.159L136.188 251.131C135.985 250.088 136.675 249.234 137.718 249.234H146.741C147.784 249.234 148.812 250.088 149.004 251.131L150.745 260.158C150.952 261.203 150.257 262.056 149.214 262.056Z" fill="#C0C5FC"/>
<path d="M171.983 262.056H162.96C161.917 262.056 160.899 261.203 160.697 260.159L158.957 251.131C158.756 250.088 159.444 249.234 160.487 249.234H169.511C170.555 249.234 171.581 250.088 171.773 251.131L173.515 260.158C173.721 261.203 173.026 262.056 171.983 262.056Z" fill="#C0C5FC"/>
<path d="M263.068 262.056H254.044C253.001 262.056 251.974 261.203 251.781 260.159L250.041 251.131C249.839 250.088 250.528 249.234 251.571 249.234H260.595C261.638 249.234 262.665 250.088 262.858 251.131L264.598 260.158C264.804 261.203 264.111 262.056 263.068 262.056Z" fill="#868CD1"/>
<path d="M198.761 282.836H189.738C188.695 282.836 187.675 281.982 187.475 280.939L185.734 271.913C185.532 270.869 186.222 270.016 187.265 270.016H196.288C197.331 270.016 198.358 270.869 198.551 271.913L200.291 280.939C200.492 281.982 199.804 282.836 198.761 282.836Z" fill="#C0C5FC"/>
<path d="M221.533 282.836H212.509C211.466 282.836 210.447 281.982 210.246 280.939L208.506 271.913C208.304 270.869 208.993 270.016 210.036 270.016H219.06C220.103 270.016 221.13 270.869 221.322 271.913L223.063 280.939C223.265 281.982 222.576 282.836 221.533 282.836Z" fill="#C0C5FC"/>
<path d="M244.302 282.836H235.278C234.235 282.836 233.216 281.982 233.015 280.939L231.275 271.913C231.074 270.869 231.762 270.016 232.805 270.016H241.829C242.874 270.016 243.899 270.869 244.092 271.913L245.832 280.939C246.034 281.982 245.345 282.836 244.302 282.836Z" fill="#868CD1"/>
<path d="M130.45 282.836H121.427C120.384 282.836 119.366 281.982 119.164 280.939L117.423 271.913C117.223 270.869 117.911 270.016 118.954 270.016H127.979C129.022 270.016 130.039 270.869 130.24 271.913L131.982 280.939C132.183 281.982 131.493 282.836 130.45 282.836Z" fill="#C0C5FC"/>
<path d="M153.22 282.836H144.196C143.153 282.836 142.136 281.982 141.933 280.939L140.193 271.913C139.992 270.869 140.68 270.016 141.725 270.016H150.749C151.791 270.016 152.809 270.869 153.011 271.913L154.752 280.939C154.952 281.982 154.263 282.836 153.22 282.836Z" fill="#60A68E"/>
<path d="M175.991 282.836H166.969C165.925 282.836 164.907 281.982 164.706 280.939L162.964 271.913C162.764 270.869 163.453 270.016 164.496 270.016H173.52C174.563 270.016 175.58 270.869 175.783 271.913L177.523 280.939C177.724 281.982 177.036 282.836 175.991 282.836Z" fill="#C0C5FC"/>
<path d="M267.073 282.836H258.049C257.007 282.836 255.989 281.982 255.787 280.939L254.046 271.913C253.846 270.869 254.534 270.016 255.577 270.016H264.602C265.645 270.016 266.662 270.869 266.863 271.913L268.605 280.939C268.806 281.982 268.116 282.836 267.073 282.836Z" fill="#868CD1"/>
<path d="M202.543 302.441H193.519C192.476 302.441 191.457 301.587 191.256 300.544L189.516 291.517C189.313 290.474 190.003 289.62 191.046 289.62H200.07C201.113 289.62 202.14 290.474 202.332 291.517L204.073 300.544C204.275 301.587 203.585 302.441 202.543 302.441Z" fill="#C0C5FC"/>
<path d="M225.314 302.441H216.29C215.247 302.441 214.229 301.587 214.027 300.544L212.287 291.517C212.086 290.474 212.774 289.62 213.817 289.62H222.841C223.885 289.62 224.911 290.474 225.103 291.517L226.844 300.544C227.046 301.587 226.357 302.441 225.314 302.441Z" fill="#C0C5FC"/>
<path d="M248.083 302.441H239.059C238.016 302.441 236.999 301.587 236.797 300.544L235.056 291.517C234.856 290.474 235.544 289.62 236.588 289.62H245.612C246.655 289.62 247.672 290.474 247.874 291.517L249.615 300.544C249.816 301.587 249.126 302.441 248.083 302.441Z" fill="#868CD1"/>
<path d="M134.231 302.441H125.208C124.165 302.441 123.147 301.587 122.947 300.544L121.205 291.517C121.004 290.474 121.694 289.62 122.736 289.62H131.76C132.803 289.62 133.821 290.474 134.023 291.517L135.763 300.544C135.962 301.587 135.274 302.441 134.231 302.441Z" fill="#C0C5FC"/>
<path d="M157.001 302.441H147.978C146.933 302.441 145.916 301.587 145.715 300.544L143.975 291.517C143.772 290.474 144.462 289.62 145.505 289.62H154.529C155.572 289.62 156.589 290.474 156.791 291.517L158.532 300.544C158.732 301.587 158.044 302.441 157.001 302.441Z" fill="#C0C5FC"/>
<path d="M179.773 302.441H170.749C169.706 302.441 168.687 301.587 168.487 300.544L166.746 291.517C166.544 290.474 167.233 289.62 168.276 289.62H177.3C178.343 289.62 179.37 290.474 179.563 291.517L181.303 300.544C181.505 301.587 180.816 302.441 179.773 302.441Z" fill="#C0C5FC"/>
<path d="M139.896 210.616H115.991C115.822 210.616 115.66 210.549 115.54 210.43C115.421 210.31 115.354 210.148 115.354 209.979C115.354 209.81 115.421 209.648 115.54 209.529C115.66 209.409 115.822 209.342 115.991 209.342H139.896C140.065 209.342 140.227 209.409 140.346 209.529C140.466 209.648 140.533 209.81 140.533 209.979C140.533 210.063 140.517 210.146 140.485 210.223C140.453 210.3 140.406 210.371 140.346 210.43C140.287 210.489 140.217 210.536 140.14 210.568C140.063 210.6 139.98 210.616 139.896 210.616Z" fill="#C0C5FC"/>
<path d="M140.624 213.512H116.717C116.548 213.512 116.386 213.445 116.267 213.326C116.147 213.206 116.08 213.044 116.08 212.875C116.08 212.706 116.147 212.544 116.267 212.425C116.386 212.305 116.548 212.238 116.717 212.238H140.623C140.791 212.238 140.953 212.305 141.073 212.425C141.192 212.544 141.26 212.706 141.26 212.875C141.26 213.044 141.193 213.206 141.074 213.325C140.954 213.445 140.793 213.512 140.624 213.512Z" fill="#C0C5FC"/>
<path d="M114.257 189.05H106.047C105.723 189.049 105.413 188.92 105.184 188.691C104.955 188.462 104.825 188.152 104.824 187.828C104.825 187.504 104.955 187.194 105.184 186.965C105.413 186.736 105.723 186.607 106.047 186.606H114.251C114.574 186.607 114.885 186.736 115.113 186.965C115.342 187.194 115.471 187.504 115.472 187.828C115.471 188.151 115.343 188.46 115.116 188.689C114.888 188.918 114.58 189.047 114.257 189.05Z" fill="white"/>
<path d="M136.767 189.05H128.563C128.24 189.049 127.929 188.92 127.701 188.691C127.472 188.462 127.343 188.152 127.342 187.828C127.343 187.504 127.472 187.194 127.701 186.965C127.929 186.736 128.24 186.607 128.563 186.606H136.767C137.091 186.607 137.401 186.736 137.63 186.965C137.859 187.194 137.989 187.504 137.99 187.828C137.989 188.152 137.859 188.462 137.63 188.691C137.401 188.92 137.091 189.049 136.767 189.05Z" fill="white"/>
<path d="M159.278 189.05H151.075C150.751 189.049 150.441 188.92 150.212 188.691C149.983 188.462 149.854 188.152 149.854 187.828C149.854 187.504 149.983 187.194 150.212 186.965C150.441 186.736 150.751 186.607 151.075 186.606H159.278C159.602 186.607 159.912 186.736 160.141 186.965C160.37 187.194 160.499 187.504 160.5 187.828C160.499 188.152 160.37 188.462 160.141 188.691C159.912 188.92 159.602 189.049 159.278 189.05Z" fill="white"/>
<path d="M181.788 189.05H173.584C173.26 189.049 172.95 188.92 172.721 188.691C172.492 188.462 172.363 188.152 172.361 187.828C172.363 187.504 172.492 187.194 172.721 186.965C172.95 186.736 173.26 186.607 173.584 186.606H181.788C182.112 186.607 182.422 186.736 182.651 186.965C182.879 187.194 183.008 187.504 183.009 187.828C183.008 188.152 182.879 188.462 182.651 188.691C182.422 188.92 182.112 189.049 181.788 189.05Z" fill="white"/>
<path d="M204.294 189.05H196.09C195.766 189.049 195.456 188.92 195.227 188.691C194.998 188.462 194.868 188.152 194.867 187.828C194.868 187.504 194.998 187.194 195.227 186.965C195.456 186.736 195.766 186.607 196.09 186.606H204.294C204.617 186.607 204.928 186.736 205.156 186.965C205.385 187.194 205.514 187.504 205.515 187.828C205.514 188.152 205.385 188.462 205.156 188.691C204.928 188.92 204.617 189.049 204.294 189.05Z" fill="white"/>
<path d="M226.808 189.05H218.604C218.28 189.049 217.97 188.92 217.741 188.691C217.513 188.462 217.384 188.152 217.383 187.828C217.384 187.504 217.513 187.194 217.741 186.965C217.97 186.736 218.28 186.607 218.604 186.606H226.808C227.132 186.607 227.442 186.736 227.671 186.965C227.9 187.194 228.029 187.504 228.031 187.828C228.029 188.152 227.9 188.462 227.671 188.691C227.442 188.92 227.132 189.049 226.808 189.05Z" fill="white"/>
<path d="M249.32 189.05H241.116C240.792 189.049 240.482 188.92 240.253 188.691C240.024 188.462 239.895 188.152 239.895 187.828C239.895 187.504 240.024 187.194 240.253 186.965C240.482 186.736 240.792 186.607 241.116 186.606H249.32C249.643 186.607 249.953 186.736 250.182 186.965C250.411 187.194 250.54 187.504 250.541 187.828C250.54 188.152 250.411 188.462 250.182 188.691C249.953 188.92 249.643 189.049 249.32 189.05Z" fill="white"/>
<path d="M197.435 221.851C195.623 221.851 194.305 221.276 193.585 220.159C192.206 218.018 193.267 215.019 196.749 211.239C198.451 209.431 200.302 207.77 202.284 206.273C202.311 206.25 202.344 206.233 202.378 206.222C202.413 206.212 202.449 206.209 202.485 206.213C202.52 206.218 202.555 206.229 202.586 206.248C202.617 206.266 202.644 206.29 202.665 206.319C202.686 206.349 202.701 206.382 202.709 206.417C202.717 206.452 202.718 206.488 202.711 206.524C202.704 206.559 202.69 206.593 202.67 206.623C202.649 206.652 202.623 206.678 202.593 206.697C202.478 206.781 191.045 215.249 194.026 219.874C194.97 221.339 196.991 221.437 198.521 221.26C201.354 220.932 205.05 219.406 208.394 217.179C211.865 214.873 214.309 212.273 215.102 210.048C215.621 208.587 215.46 207.554 214.624 206.974C213.543 206.225 211.281 206.225 208.574 206.974C205.986 207.689 203.381 208.979 201.774 210.338C201.748 210.36 201.718 210.377 201.685 210.387C201.652 210.398 201.618 210.402 201.584 210.399C201.549 210.396 201.516 210.386 201.486 210.371C201.455 210.355 201.428 210.333 201.406 210.307C201.384 210.281 201.367 210.25 201.356 210.218C201.346 210.185 201.342 210.15 201.345 210.116C201.348 210.082 201.357 210.049 201.373 210.018C201.389 209.987 201.411 209.96 201.437 209.938C203.096 208.533 205.777 207.203 208.435 206.469C211.327 205.673 213.69 205.697 214.916 206.545C215.642 207.047 216.349 208.094 215.588 210.225C214.76 212.555 212.244 215.249 208.677 217.617C205.258 219.888 201.48 221.44 198.569 221.782C198.193 221.827 197.814 221.849 197.435 221.851Z" fill="#292220"/>
<path d="M244.801 206.971L243.871 205.218C243.871 205.218 244.333 202.087 240.41 200.106C240.41 200.106 238.977 199.523 238.166 200.692C237.421 201.768 239.588 201.574 239.472 203.417C239.356 205.26 240.23 206.341 241.448 206.942L242.453 208.108L244.801 206.971Z" fill="#60A68E"/>
<path d="M281.875 202.77C281.875 202.77 278.505 219.31 259.968 224.713C254.179 226.4 241.033 207.342 241.033 207.342C241.033 207.342 241.495 205.589 244.39 205.989C244.39 205.989 257.192 214.466 258.804 215.387C260.237 216.204 269.631 204.874 273.931 203.057C278.23 201.239 281.875 202.77 281.875 202.77Z" fill="#292220"/>
<path d="M227.685 202.476L228.428 206.488L248.606 202.751L247.864 198.738L227.685 202.476Z" fill="#292220"/>
<path d="M223.348 205.349L228.41 206.487L227.668 202.473L223.348 205.349Z" fill="#60A68E"/>
<path d="M250.438 199.632L250.674 200.907C250.709 201.092 250.707 201.283 250.668 201.468C250.629 201.653 250.554 201.828 250.447 201.984C250.34 202.14 250.203 202.273 250.044 202.375C249.886 202.478 249.708 202.548 249.523 202.582L248.589 202.754L247.846 198.742L248.862 198.554C249.214 198.488 249.577 198.565 249.873 198.767C250.168 198.969 250.372 199.28 250.438 199.632Z" fill="#60A68E"/>
<path d="M304.007 306.744C304.007 306.744 306.308 308.843 305.859 310.334C305.41 311.825 303.335 312.821 303.054 314.644C302.774 316.468 301.652 317.462 300.642 317.462H295.829C295.829 317.462 295.085 316.188 296.879 315.793C298.674 315.398 299.352 313.263 299.239 311.274C299.126 309.285 299.408 306.633 299.408 306.633L303.23 305.749L304.007 306.744Z" fill="#292220"/>
<path d="M275.79 312.174C275.79 312.174 276.203 316.953 275.193 317.45L262.271 317.423C262.271 317.423 262.271 315.932 264.342 315.6C266.412 315.269 270.063 314.052 270.679 311.346C271.295 308.64 275.79 312.174 275.79 312.174Z" fill="#292220"/>
<path d="M264.885 244.68C264.885 244.68 265.566 253.055 266.367 263.124C267.456 276.799 268.765 293.599 268.894 296.781C269.119 302.307 270.009 311.147 270.009 311.147C270.009 311.147 272.139 313.246 276.404 312.361C276.404 312.361 280.203 299.742 281.289 286.398C281.306 286.179 281.322 285.958 281.34 285.738C282.349 272.147 283.919 243.529 283.919 243.529L264.885 244.68Z" fill="#60A68E"/>
<path d="M264.885 244.68C264.885 244.68 265.566 253.055 266.367 263.124L281.297 286.391C281.314 286.173 281.33 285.952 281.348 285.732C282.357 272.14 283.927 243.522 283.927 243.522L264.885 244.68Z" fill="#50957D"/>
<path d="M267.994 245.674C267.994 245.674 280.279 276.008 288.357 290.262C296.435 304.516 298.958 308.495 298.958 308.495C298.958 308.495 303.586 306.671 304.006 305.429C304.006 305.429 300.919 277.91 295.51 271.201C292.452 267.41 288.862 256.034 288.693 252.057C288.524 248.079 287.599 240.205 287.599 240.205L267.994 245.674Z" fill="#60A68E"/>
<path d="M284.16 198.932C284.16 198.932 275.848 202.942 271.057 201.455C271.968 200.396 273.068 199.515 274.3 198.858C274.141 197.903 274.006 197.062 273.931 196.353C273.816 195.504 273.749 194.649 273.729 193.793L276.935 191.27L279.977 188.855C279.736 195.646 284.16 198.932 284.16 198.932Z" fill="#FFCEAE"/>
<path d="M264.359 245.372C264.495 245.498 264.673 245.569 264.859 245.571C266.663 245.534 271.916 246.527 276.357 246.079C280.117 245.716 283.433 244.626 286.991 243.067C287.468 242.849 288.559 242.271 288.54 241.761C288.521 241.18 288.467 240.362 288.392 239.308C288.244 237.237 288.034 234.289 287.967 230.799C287.917 228.211 287.946 225.322 288.134 222.263C288.145 222.058 288.155 221.851 288.164 221.642C288.218 220.527 288.244 219.392 288.244 218.288C288.28 214.944 288.027 211.604 287.489 208.304C286.585 203.048 284.889 198.921 282.384 197.086C282.051 196.831 279.996 197.83 278.072 198.755C276.321 199.609 274.569 199.7 272.911 199.373L271.254 200.826C269.243 202.657 267.031 205.18 266.055 208.994C265.244 212.225 264.765 218.073 264.506 224.125C264.38 226.884 264.286 229.643 264.249 232.274V232.365C264.23 232.637 264.23 232.911 264.23 233.184C264.139 239.926 264.23 245.281 264.359 245.372Z" fill="#292220"/>
<path d="M280.029 191.452C280.029 191.452 277.929 195.275 273.929 196.353C273.814 195.504 273.747 194.65 273.727 193.793L276.933 191.27L280.029 191.452Z" fill="#ED985F"/>
<path d="M272.266 193.683C272.266 193.683 280.194 194.98 280.939 190.104C281.684 185.229 283.208 182.112 278.176 181.078C273.145 180.044 271.875 181.758 271.226 183.325C270.576 184.893 270.216 193.22 272.266 193.683Z" fill="#FFCEAE"/>
<path d="M283.822 180.493C283.894 180.411 284.059 180.345 284.429 180.325C284.218 180.205 283.982 180.138 283.739 180.13C283.661 179.616 283.387 178.706 282.504 178.485C282.647 178.569 282.77 178.684 282.863 178.822C282.956 178.96 283.017 179.117 283.042 179.281C282.016 178.23 279.822 177.464 273.746 177.943C265.737 178.58 268.377 183.704 269.413 184.315C270.45 184.925 273.06 183.251 274.986 183.403C276.913 183.556 277.286 186.349 277.942 186.732C278.598 187.116 278.34 186.438 279.225 186.036C280.11 185.635 280.196 187.105 279.94 188.061C279.684 189.016 280.895 190.278 280.895 190.278L282.126 188.951C283.357 187.624 284.515 182.007 283.958 180.809C283.916 180.707 283.871 180.602 283.822 180.493Z" fill="#292220"/>
<path d="M243.853 205.131C243.853 205.131 244.126 204.053 243.376 203.568C242.626 203.084 241.942 201.765 241.624 201.944C240.973 202.313 241.982 203.463 241.798 204.898C241.735 205.4 242.904 206.716 243.853 205.131Z" fill="#60A68E"/>
<path d="M287.966 230.799C287.916 228.211 287.945 225.321 288.133 222.263C288.144 222.058 288.153 221.851 288.163 221.642C287.408 217.907 286.268 214.594 284.59 214.485C284.59 214.485 279.59 222.344 287.966 230.799Z" fill="#292220"/>
<path d="M294.58 244.352C294.58 244.352 294.163 248.404 293.706 249.17C293.249 249.937 291.301 252.388 290.472 252.867C289.642 253.347 290.978 249.64 290.809 248.919C290.64 248.197 290.126 250.236 289.761 250.284C289.397 250.332 289.489 248.497 289.476 247.829C289.464 247.162 291.255 245.513 291.887 244.091C292.519 242.669 294.58 244.352 294.58 244.352Z" fill="#60A68E"/>
<path d="M282.38 197.046C282.38 197.046 287.396 199.422 289.802 203.074C293.533 208.742 297.858 229.394 297.939 231.307C298.02 233.22 294.781 246.722 294.781 246.722C294.781 246.722 291.5 246.506 290.653 244.849C290.653 244.849 291.309 230.976 290.893 230.084C290.477 229.192 277.207 211.47 278.699 207.694C280.191 203.917 282.38 197.046 282.38 197.046Z" fill="#292220"/>
<path d="M225.942 203.623L226.206 205.991L223.348 205.349L225.942 203.623Z" fill="#292220"/>
<path d="M4.45751 316.699C3.69001 315.495 1.38433 312.37 -1.68726 312.784C-5.03115 313.235 2.00852 315.441 4.16453 316.707C3.76198 316.73 3.35861 316.683 2.97188 316.569C1.53082 316.054 -0.93728 317.047 -1.72707 317.386H11.9956C11.8387 316.859 11.4883 316.41 11.0147 316.131C10.7886 315.994 10.3364 315.972 9.75199 316.018C10.5673 315.062 11.1341 311.983 8.86188 312.773C7.20268 313.351 7.20746 315.229 7.36987 316.341C7.01797 316.395 6.65969 316.451 6.3062 316.5C5.62309 313.018 3.20595 302.802 -1.69204 302.538C-6.65213 302.261 2.52443 313.127 5.57214 316.596C5.1868 316.647 4.81101 316.682 4.45751 316.699Z" fill="#82B378"/>
<path d="M380.015 317.241H-49.5127C-49.7819 317.241 -50 317.459 -50 317.728V317.895C-50 318.165 -49.7819 318.383 -49.5127 318.383H380.015C380.284 318.383 380.502 318.165 380.502 317.895V317.728C380.502 317.459 380.284 317.241 380.015 317.241Z" fill="#292220"/>
<path d="M89.0092 67.9781C89.0092 67.9781 103.015 57.2618 91.3776 45.6601C81.0521 35.3663 69.0134 36.0696 60.1787 40.247C56.4167 42.0263 45.5708 40.4665 36.3395 29.9918C23.7528 15.7078 -19.885 24.3713 -11.9284 46.3477C-8.07822 56.9831 -23.6469 57.3694 -15.7138 68L89.0092 67.9781Z" fill="white"/>
<path d="M219.42 22.9737C219.42 22.9737 204.554 10.1142 216.906 -3.80786C227.866 -16.1605 240.644 -15.3164 250.021 -10.3036C254.014 -8.16848 265.526 -10.0402 275.324 -22.6098C288.683 -39.7507 335.001 -29.3545 326.556 -2.98276C322.469 9.77972 338.994 10.2433 330.573 23L219.42 22.9737Z" fill="white"/>
<path d="M313.491 77.42C313.491 77.42 325.621 70.6254 319.96 61.4042C319.96 61.4042 315.432 55.742 310.58 54.286C310.58 54.286 313.167 68.037 310.58 68.3606C307.992 68.6841 308.801 52.83 308.801 52.83C308.801 52.83 296.024 46.6866 291.011 47.1679C291.011 47.1679 298.935 60.5953 296.348 60.2738C293.76 59.9523 284.865 46.359 284.865 46.359C284.865 46.359 271.763 43.9323 269.663 51.6976C267.562 59.4629 270.954 63.3455 272.898 63.8308C274.843 64.3162 287.292 64.1544 286.969 65.7762C286.645 67.3981 278.235 69.9824 273.545 68.5264C273.545 68.5264 278.721 81.3068 285.513 80.6597C292.306 80.0126 294.408 75.8064 298.615 75.4828C302.822 75.1593 305.893 76.2917 303.79 77.4282C301.688 78.5648 294.572 77.7999 291.176 80.6873C287.779 83.5747 285.034 85.3553 291.337 86.6495C297.641 87.9437 308.966 87.1348 311.23 82.2815L313.491 77.42Z" fill="#A8D29F"/>
<path d="M3.58973 135.351C4.03013 134.963 4.58668 134.731 5.17264 134.692C6.49199 134.7 7.21744 136.213 8.34149 136.898C9.78238 137.75 11.7518 137.05 12.7911 135.732C13.8304 134.413 14.1173 132.674 14.1904 130.997C14.3434 127.742 13.8484 124.467 13.9659 121.226C14.0834 117.985 14.9901 114.539 17.4061 112.351C19.727 113.953 21.767 115.928 23.4435 118.196C27.5454 115.19 27.4965 109.231 28.3716 104.212C29.273 99.0595 31.5127 94.2344 34.8663 90.2202C35.7846 89.129 37.01 88.0166 38.4225 88.1975C38.8948 88.2955 39.3403 88.4945 39.7285 88.7808C40.1166 89.0671 40.4383 89.4339 40.6714 89.8561C44.3632 95.7281 36.2494 104.317 40.38 109.896C40.9773 108.634 43.0712 108.874 43.7988 110.064C44.5265 111.253 44.1942 112.818 43.5563 114.056C41.8423 117.378 38.3383 119.279 35.3195 121.489C32.3006 123.7 29.3859 126.97 29.9464 130.686C30.1834 132.306 31.0766 133.814 31.0703 135.453C31.0538 138.727 27.6912 140.808 24.6951 142.186C21.6989 143.564 18.2681 145.371 17.8952 148.628C17.6489 150.786 18.9192 152.866 18.8893 155.042C18.8207 159.765 13.3217 162.046 9.49253 164.82C6.66833 166.878 4.47588 169.685 3.16283 172.923C0.694517 179.05 -2.83425 177.102 -2.06529 171.223C-1.65588 168.117 -0.71204 165.102 -0.479084 161.977C0.138278 153.868 -4.24604 141.245 3.58973 135.351Z" fill="#81BEA9"/>
<path d="M34.7295 99.782C33.3346 106.508 31.8766 113.128 29.0375 119.418C26.0941 125.959 21.6517 131.446 17.3799 137.156C13.4562 142.473 10.0622 148.162 7.24645 154.14C5.71302 157.352 4.30159 160.633 2.9831 163.947C1.78851 166.865 0.404172 169.985 -0.200797 173.101C-0.218164 173.188 -0.203864 173.279 -0.160463 173.356C-0.117062 173.434 -0.047416 173.493 0.0359395 173.524C0.11929 173.555 0.210868 173.555 0.294198 173.524C0.377524 173.493 0.44713 173.434 0.490471 173.356C2.15557 170.268 3.12044 166.761 4.43312 163.519C5.74581 160.277 7.1996 156.943 8.76522 153.738C12.0451 147.097 15.99 140.806 20.5392 134.961C24.4844 129.821 28.1446 124.637 30.6441 118.617C33.1168 112.658 34.8028 106.401 35.6596 100.006C35.7337 99.4158 34.8715 99.1941 34.7418 99.7937L34.7295 99.782Z" fill="#C7FFEC"/>
</g>
<defs>
<clipPath id="clip0_120_142">
<rect width="304" height="318" rx="30" fill="white"/>
</clipPath>
</defs>
</svg>
